mtllib cubes.mtl
o Cube
v -0.500000 -0.500000 -0.500000
v -0.500000 -0.500000 0.500000
v -0.500000 0.500000 -0.500000
v 0.500000 -0.500000 -0.500000
v 0.500000 -0.500000 0.500000
v 0.500000 0.500000 -0.500000
vn 1.0000 -0.0000 -0.0000
vn -0.0000 -1.0000 -0.0000
vn -0.0000 -0.0000 -1.0000
vn -1.0000 -0.0000 -0.0000
vn -0.0000 0.7071 0.7071
vt 0.500000 1.000000
vt 1.000000 1.000000
vt 0.500000 0.500000
vt 0.000000 1.000000
vt -0.000000 0.500000
vt 0.000000 0.500000
s 0
usemtl color
f 4/1/1 6/2/1 5/3/1
f 4/1/2 5/4/2 2/5/2 1/3/2
f 3/3/3 6/1/3 4/4/3 1/6/3
f 1/1/4 2/2/4 3/3/4
f 3/3/5 2/5/5 5/4/5 6/1/5
