mtllib cubes.mtl
o Cube
v -0.500000 -0.500000 -0.500000
v -0.500000 -0.500000 0.500000
v -0.500000 0.500000 -0.500000
v 0.500000 -0.500000 -0.500000
v 0.500000 -0.500000 0.500000
v 0.500000 0.500000 -0.500000
v -0.500000 -0.480785 0.304910
v -0.500000 -0.207107 -0.207107
v -0.500000 -0.331470 -0.055570
v -0.500000 -0.423880 0.117317
v -0.500000 -0.055570 -0.331470
v -0.500000 0.304910 -0.480785
v -0.500000 0.117317 -0.423880
v 0.500000 -0.480785 0.304910
v 0.500000 -0.331470 -0.055570
v 0.500000 -0.423880 0.117317
v 0.500000 -0.055570 -0.331470
v 0.500000 0.304910 -0.480785
v 0.500000 0.117317 -0.423880
v 0.500000 -0.207107 -0.207107
vn -1.0000 -0.0000 -0.0000
vn 1.0000 -0.0000 -0.0000
vn -0.0000 -1.0000 -0.0000
vn -0.0000 -0.0000 -1.0000
vn -0.0000 0.0980 0.9952
vn -0.0000 0.1951 0.9808
vn -0.0000 0.3827 0.9239
vn -0.0000 0.5556 0.8315
vn -0.0000 0.7071 0.7071
vn -0.0000 0.8315 0.5556
vn -0.0000 0.9239 0.3827
vn -0.0000 0.9808 0.1951
vn -0.0000 0.9952 0.0980
vt 0.000704 0.499296
vt 0.084969 0.277081
vt 0.147151 0.352849
vt 0.000704 0.499296
vt 0.084970 0.277081
vt 0.147151 0.352849
vt 0.500000 0.500000
vt 0.000000 1.000000
vt 0.000000 0.500000
vt 0.500000 0.500000
vt 0.437500 1.000000
vt 0.500000 1.000000
vt 0.375000 0.500000
vt 0.437500 0.500000
vt 0.312500 0.500000
vt 0.375000 1.000000
vt 0.250000 0.500000
vt 0.312500 1.000000
vt 0.187500 1.000000
vt 0.187500 0.500000
vt 0.125000 1.000000
vt 0.125000 0.500000
vt 0.062500 1.000000
vt 0.062500 0.500000
vt 0.000000 1.000000
vt 0.000000 0.500000
vt 0.403159 0.489688
vt 0.500704 0.499296
vt 0.000704 -0.000704
vt 0.010312 0.096841
vt 0.038764 0.190638
vt 0.309363 0.461235
vt 0.222919 0.415030
vt 0.403159 0.489688
vt 0.500704 0.499296
vt 0.000704 -0.000704
vt 0.010312 0.096841
vt 0.038765 0.190637
vt 0.309362 0.461235
vt 0.222919 0.415031
vt 0.500000 1.000000
vt 0.250000 1.000000
s 0
usemtl color
f 1/1/1 2/29/1 7/30/1
f 1/1/1 7/30/1 10/31/1
f 1/1/1 10/31/1 9/2/1
f 1/1/1 9/2/1 8/3/1
f 8/3/1 11/33/1 1/1/1
f 11/33/1 13/32/1 1/1/1
f 13/32/1 12/27/1 1/1/1
f 12/27/1 3/28/1 1/1/1
f 4/4/2 6/36/2 18/37/2
f 4/4/2 18/37/2 19/38/2
f 4/4/2 19/38/2 17/5/2
f 4/4/2 17/5/2 20/6/2
f 20/6/2 15/40/2 4/4/2
f 15/40/2 16/39/2 4/4/2
f 16/39/2 14/34/2 4/4/2
f 14/34/2 5/35/2 4/4/2
f 5/7/3 2/41/3 1/8/3 4/9/3
f 6/7/4 4/41/4 1/8/4 3/9/4
s 1
f 3/10/5 12/14/6 18/11/6 6/12/5
f 13/13/7 19/16/7 18/11/6 12/14/6
f 11/15/8 17/18/8 19/16/7 13/13/7
f 8/17/9 20/42/9 17/18/8 11/15/8
f 15/19/10 20/42/9 8/17/9 9/20/10
f 16/21/11 15/19/10 9/20/10 10/22/11
f 14/23/12 16/21/11 10/22/11 7/24/12
f 5/25/13 14/23/12 7/24/12 2/26/13
